<svg xmlns="http://www.w3.org/2000/svg" xmlns:xlink="http://www.w3.org/1999/xlink" viewBox="0 0 1000 500"><defs><style>.cls-1,.cls-2{isolation:isolate;}.cls-2{mix-blend-mode:multiply;}.cls-3{fill:url(#未命名的渐变_21);}.cls-4{fill:red;}.cls-5{fill:url(#未命名的渐变_17);}.cls-6{fill:#00005b;}.cls-7{fill:#001e36;}</style><linearGradient id="未命名的渐变_21" x1="50" y1="500" x2="50" gradientUnits="userSpaceOnUse"><stop offset="0"/><stop offset="0.06" stop-color="#0b0000"/><stop offset="0.17" stop-color="#290000"/><stop offset="0.31" stop-color="#5b0000"/><stop offset="0.48" stop-color="#9e0000"/><stop offset="0.68" stop-color="#f40000"/><stop offset="0.7" stop-color="red"/><stop offset="1" stop-color="red"/></linearGradient><linearGradient id="未命名的渐变_17" x1="721.9" y1="517.24" x2="508.1" y2="-17.24" gradientUnits="userSpaceOnUse"><stop offset="0" stop-color="red"/><stop offset="0.3" stop-color="red"/><stop offset="0.32" stop-color="#f40000"/><stop offset="0.52" stop-color="#9e0000"/><stop offset="0.69" stop-color="#5b0000"/><stop offset="0.83" stop-color="#290000"/><stop offset="0.94" stop-color="#0b0000"/><stop offset="1"/></linearGradient></defs><g class="cls-1"><g id="图层_1" data-name="图层 1" class="cls-2"><path d="M150,400v79.18A249.17,249.17,0,0,0,250,500c138.07,0,250-111.93,250-250S388.07,0,250,0A249.17,249.17,0,0,0,150,20.82V100h96v0c1.33,0,2.66,0,4,0a150,150,0,0,1,0,300"/><polyline points="242 0 150 0 150 50 242 50 242 0"/><rect class="cls-3" width="100" height="500"/><polyline class="cls-4" points="249.75 500 139.75 500 139.75 400 249.75 400 249.75 500"/><polyline points="765 500 965 0 865 0 715 375"/><polyline class="cls-5" points="715 375 565 0 465 0 665 500 765 500"/><polyline class="cls-4" points="715 375 665 500 765 500 825 350 725 350 715 375"/><rect class="cls-6" x="940" y="440" width="50" height="50"/><rect class="cls-7" x="940" y="310" width="50" height="50"/><rect class="cls-6" x="940" y="375" width="50" height="50"/><rect class="cls-6" x="940" y="245" width="50" height="50"/></g></g></svg>